<mxfile host="app.diagrams.net" modified="2023-11-01T16:33:49.110Z" agent="Mozilla/5.0 (Windows NT 10.0; Win64; x64) AppleWebKit/537.36 (KHTML, like Gecko) Chrome/118.0.0.0 Safari/537.36" etag="ygzG63Mu6jRcISfvZqhP" version="22.0.8" type="github">
  <diagram name="第 1 页" id="Q3Hua6un79KS_3kmeP3z">
    <mxGraphModel dx="1434" dy="750" grid="1" gridSize="10" guides="1" tooltips="1" connect="1" arrows="1" fold="1" page="1" pageScale="1" pageWidth="827" pageHeight="1169" math="0" shadow="0">
      <root>
        <mxCell id="0" />
        <mxCell id="1" parent="0" />
        <mxCell id="PMX-8hQE2oqn0zxJFDJP-1" value="大雁" style="swimlane;fontStyle=1;align=center;verticalAlign=top;childLayout=stackLayout;horizontal=1;startSize=26;horizontalStack=0;resizeParent=1;resizeParentMax=0;resizeLast=0;collapsible=1;marginBottom=0;whiteSpace=wrap;html=1;fillColor=#fad7ac;strokeColor=#b46504;" vertex="1" parent="1">
          <mxGeometry x="320" y="340" width="60" height="90" as="geometry" />
        </mxCell>
        <mxCell id="PMX-8hQE2oqn0zxJFDJP-2" value="&amp;nbsp;" style="text;strokeColor=none;fillColor=none;align=left;verticalAlign=top;spacingLeft=4;spacingRight=4;overflow=hidden;rotatable=0;points=[[0,0.5],[1,0.5]];portConstraint=eastwest;whiteSpace=wrap;html=1;" vertex="1" parent="PMX-8hQE2oqn0zxJFDJP-1">
          <mxGeometry y="26" width="60" height="14" as="geometry" />
        </mxCell>
        <mxCell id="PMX-8hQE2oqn0zxJFDJP-3" value="" style="line;strokeWidth=1;fillColor=none;align=left;verticalAlign=middle;spacingTop=-1;spacingLeft=3;spacingRight=3;rotatable=0;labelPosition=right;points=[];portConstraint=eastwest;strokeColor=inherit;" vertex="1" parent="PMX-8hQE2oqn0zxJFDJP-1">
          <mxGeometry y="40" width="60" height="8" as="geometry" />
        </mxCell>
        <mxCell id="PMX-8hQE2oqn0zxJFDJP-4" value="+下蛋()&lt;br&gt;+飛()&lt;br&gt;" style="text;strokeColor=none;fillColor=none;align=left;verticalAlign=top;spacingLeft=4;spacingRight=4;overflow=hidden;rotatable=0;points=[[0,0.5],[1,0.5]];portConstraint=eastwest;whiteSpace=wrap;html=1;" vertex="1" parent="PMX-8hQE2oqn0zxJFDJP-1">
          <mxGeometry y="48" width="60" height="42" as="geometry" />
        </mxCell>
        <mxCell id="PMX-8hQE2oqn0zxJFDJP-5" style="edgeStyle=orthogonalEdgeStyle;rounded=0;orthogonalLoop=1;jettySize=auto;html=1;exitX=0;exitY=0.5;exitDx=0;exitDy=0;entryX=1;entryY=0.5;entryDx=0;entryDy=0;endArrow=diamondThin;endFill=0;" edge="1" parent="1" source="PMX-8hQE2oqn0zxJFDJP-6" target="PMX-8hQE2oqn0zxJFDJP-2">
          <mxGeometry relative="1" as="geometry" />
        </mxCell>
        <mxCell id="PMX-8hQE2oqn0zxJFDJP-6" value="群雁" style="swimlane;fontStyle=1;align=center;verticalAlign=top;childLayout=stackLayout;horizontal=1;startSize=26;horizontalStack=0;resizeParent=1;resizeParentMax=0;resizeLast=0;collapsible=1;marginBottom=0;whiteSpace=wrap;html=1;fillColor=#f5f5f5;fontColor=#333333;strokeColor=#666666;" vertex="1" parent="1">
          <mxGeometry x="458.5" y="340" width="80" height="90" as="geometry" />
        </mxCell>
        <mxCell id="PMX-8hQE2oqn0zxJFDJP-7" value="&amp;nbsp;" style="text;strokeColor=none;fillColor=none;align=left;verticalAlign=top;spacingLeft=4;spacingRight=4;overflow=hidden;rotatable=0;points=[[0,0.5],[1,0.5]];portConstraint=eastwest;whiteSpace=wrap;html=1;" vertex="1" parent="PMX-8hQE2oqn0zxJFDJP-6">
          <mxGeometry y="26" width="80" height="14" as="geometry" />
        </mxCell>
        <mxCell id="PMX-8hQE2oqn0zxJFDJP-8" value="" style="line;strokeWidth=1;fillColor=none;align=left;verticalAlign=middle;spacingTop=-1;spacingLeft=3;spacingRight=3;rotatable=0;labelPosition=right;points=[];portConstraint=eastwest;strokeColor=inherit;" vertex="1" parent="PMX-8hQE2oqn0zxJFDJP-6">
          <mxGeometry y="40" width="80" height="8" as="geometry" />
        </mxCell>
        <mxCell id="PMX-8hQE2oqn0zxJFDJP-9" value="+V形飛行()&lt;br&gt;+一形飛行()" style="text;strokeColor=none;fillColor=none;align=left;verticalAlign=top;spacingLeft=4;spacingRight=4;overflow=hidden;rotatable=0;points=[[0,0.5],[1,0.5]];portConstraint=eastwest;whiteSpace=wrap;html=1;" vertex="1" parent="PMX-8hQE2oqn0zxJFDJP-6">
          <mxGeometry y="48" width="80" height="42" as="geometry" />
        </mxCell>
        <mxCell id="PMX-8hQE2oqn0zxJFDJP-10" value="&lt;font style=&quot;font-size: 14px;&quot;&gt;聚合關係&lt;/font&gt;" style="shape=note;size=20;whiteSpace=wrap;html=1;fillColor=#dae8fc;strokeColor=#6c8ebf;align=left;" vertex="1" parent="1">
          <mxGeometry x="390" y="280" width="90" height="30" as="geometry" />
        </mxCell>
      </root>
    </mxGraphModel>
  </diagram>
</mxfile>
